<svg xmlns="http://www.w3.org/2000/svg" width="149.2" height="35" viewBox="0 0 149.2 35"><rect class="svg__rect" x="0" y="0" width="95.99" height="35" fill="#31C4F3"/><rect class="svg__rect" x="93.99" y="0" width="55.209999999999994" height="35" fill="#FFFFFF"/><path class="svg__text" d="M15.69 22L14.22 22L14.22 13.47L16.14 13.47L18.60 20.01L21.06 13.47L22.97 13.47L22.97 22L21.49 22L21.49 19.19L21.64 15.43L19.12 22L18.06 22L15.55 15.43L15.69 19.19L15.69 22ZM28.49 22L26.95 22L30.17 13.47L31.50 13.47L34.73 22L33.18 22L32.49 20.01L29.18 20.01L28.49 22ZM30.83 15.28L29.60 18.82L32.07 18.82L30.83 15.28ZM41.14 22L38.69 22L38.69 13.47L41.21 13.47Q42.34 13.47 43.21 13.97Q44.09 14.48 44.57 15.40Q45.05 16.33 45.05 17.52L45.05 17.52L45.05 17.95Q45.05 19.16 44.57 20.08Q44.08 21.00 43.19 21.50Q42.30 22 41.14 22L41.14 22ZM40.17 14.66L40.17 20.82L41.14 20.82Q42.30 20.82 42.93 20.09Q43.55 19.36 43.56 17.99L43.56 17.99L43.56 17.52Q43.56 16.13 42.96 15.40Q42.35 14.66 41.21 14.66L41.21 14.66L40.17 14.66ZM55.09 22L49.51 22L49.51 13.47L55.05 13.47L55.05 14.66L51.00 14.66L51.00 17.02L54.50 17.02L54.50 18.19L51.00 18.19L51.00 20.82L55.09 20.82L55.09 22ZM68.38 22L65.26 22L65.26 13.47L68.19 13.47Q69.64 13.47 70.39 14.05Q71.15 14.63 71.15 15.78L71.15 15.78Q71.15 16.36 70.83 16.83Q70.51 17.30 69.90 17.56L69.90 17.56Q70.60 17.75 70.97 18.26Q71.35 18.78 71.35 19.51L71.35 19.51Q71.35 20.71 70.58 21.36Q69.81 22 68.38 22L68.38 22ZM66.75 18.15L66.75 20.82L68.39 20.82Q69.09 20.82 69.48 20.47Q69.88 20.13 69.88 19.51L69.88 19.51Q69.88 18.18 68.52 18.15L68.52 18.15L66.75 18.15ZM66.75 14.66L66.75 17.06L68.20 17.06Q68.89 17.06 69.28 16.75Q69.67 16.43 69.67 15.86L69.67 15.86Q69.67 15.23 69.31 14.95Q68.95 14.66 68.19 14.66L68.19 14.66L66.75 14.66ZM77.86 18.86L75.00 13.47L76.64 13.47L78.61 17.51L80.57 13.47L82.21 13.47L79.35 18.86L79.35 22L77.86 22L77.86 18.86Z" fill="#FFFFFF"/><path class="svg__text" d="M109.60 22L107.17 22L110.88 13.60L113.22 13.60L116.94 22L114.47 22L113.81 20.37L110.26 20.37L109.60 22ZM112.03 15.93L110.95 18.61L113.11 18.61L112.03 15.93ZM123.47 22L121.09 22L121.09 13.60L123.47 13.60L123.47 22ZM131.02 22L128.64 22L128.64 13.60L132.49 13.60Q133.63 13.60 134.47 13.98Q135.31 14.35 135.76 15.06Q136.22 15.76 136.22 16.71L136.22 16.71Q136.22 17.62 135.79 18.30Q135.37 18.98 134.57 19.36L134.57 19.36L136.38 22L133.84 22L132.32 19.77L131.02 19.77L131.02 22ZM131.02 15.47L131.02 17.93L132.34 17.93Q133.07 17.93 133.45 17.61Q133.82 17.29 133.82 16.71L133.82 16.71Q133.82 16.12 133.45 15.79Q133.07 15.47 132.34 15.47L132.34 15.47L131.02 15.47Z" fill="#3C9AD5" x="106.99"/></svg>